<svg width="69" height="82" viewBox="0 0 69 82" fill="none" xmlns="http://www.w3.org/2000/svg">
    <path d="M34.5 14C15.7342 14 0.5 29.2341 0.5 48C0.5 66.4517 15.2305 81.4703 33.5625 81.9688C33.8678 81.9997 34.189 81.9998 34.5 81.9998C34.811 81.9998 35.1322 82.0001 35.4375 81.9688C53.7695 81.4703 68.5 66.4517 68.5 48C68.5 29.2341 53.2658 14 34.5 14ZM33.5 16.0938V30H22.1562C22.728 28.237 23.3753 26.5754 24.0938 25.0938C26.658 19.8049 29.9998 16.6121 33.5 16.0938ZM35.5 16.0938C39.0002 16.6121 42.3419 19.8049 44.9062 25.0938C45.6246 26.5754 46.272 28.237 46.8438 30H35.5V16.0938ZM27.75 16.7188C25.6479 18.508 23.7971 21.0924 22.2812 24.2188C21.4351 25.964 20.7041 27.9265 20.0625 30H8.0625C12.6067 23.3422 19.5999 18.469 27.75 16.7188ZM41.25 16.7188C49.4002 18.469 56.3933 23.3422 60.9375 30H48.9375C48.296 27.9265 47.5649 25.964 46.7188 24.2188C45.2029 21.0924 43.3522 18.508 41.25 16.7188ZM6.7812 32H19.4688C18.2826 36.4982 17.6086 41.5882 17.5312 47H2.5312C2.701 41.5488 4.2183 36.4325 6.7812 32ZM21.5625 32H33.5V47H19.5312C19.6132 41.5414 20.3386 36.4375 21.5625 32ZM35.5 32H47.4375C48.6613 36.4375 49.3869 41.5414 49.4688 47H35.5V32ZM49.5312 32H62.2188C64.7817 36.4325 66.299 41.5488 66.4688 47H51.4688C51.3918 41.5882 50.7174 36.4982 49.5312 32ZM2.5312 49H17.5312C17.6082 54.4139 18.2819 59.5079 19.4688 64H6.7812C4.2235 59.5679 2.6978 54.4486 2.5312 49ZM19.5312 49H33.5V64H21.5625C20.3379 59.5687 19.6124 54.4607 19.5312 49ZM35.5 49H49.4688C49.3878 54.4607 48.662 59.5687 47.4375 64H35.5V49ZM51.4688 49H66.4688C66.3022 54.4486 64.7765 59.5679 62.2188 64H49.5312C50.7181 59.5079 51.3921 54.4139 51.4688 49ZM8.0312 66H20.0625C20.7041 68.0699 21.4351 70.0048 22.2812 71.75C23.809 74.9011 25.6896 77.5138 27.8125 79.3125C19.6223 77.5698 12.5857 72.6925 8.0312 66ZM22.1562 66H33.5V79.9062C30.0009 79.382 26.6573 76.1623 24.0938 70.875C23.3753 69.3933 22.728 67.76 22.1562 66ZM35.5 66H46.8438C46.272 67.76 45.6246 69.3933 44.9062 70.875C42.3426 76.1623 38.9991 79.382 35.5 79.9062V66ZM48.9375 66H60.9688C56.4143 72.6925 49.3777 77.5698 41.1875 79.3125C43.3104 77.5138 45.1909 74.9011 46.7188 71.75C47.5649 70.0048 48.296 68.0699 48.9375 66Z" fill="#5E5964"/>
    <circle cx="34.5" cy="19" r="9" fill="#19171B"/>
    <path d="M34.5003 3.66667C27.4053 3.66667 21.667 9.405 21.667 16.5C21.667 26.125 34.5003 40.3333 34.5003 40.3333C34.5003 40.3333 47.3337 26.125 47.3337 16.5C47.3337 9.405 41.5953 3.66667 34.5003 3.66667ZM34.5003 21.0833C31.9703 21.0833 29.917 19.03 29.917 16.5C29.917 13.97 31.9703 11.9167 34.5003 11.9167C37.0303 11.9167 39.0837 13.97 39.0837 16.5C39.0837 19.03 37.0303 21.0833 34.5003 21.0833Z" fill="#F94E18"/>
</svg>
