<?xml version="1.0" encoding="utf-8"?>
<!-- Generator: Adobe Illustrator 25.0.1, SVG Export Plug-In . SVG Version: 6.00 Build 0)  -->
<svg version="1.1" id="Ebene_1" xmlns="http://www.w3.org/2000/svg" xmlns:xlink="http://www.w3.org/1999/xlink" x="0px" y="0px"
	 viewBox="0 0 160.7 55.4" style="enable-background:new 0 0 160.7 55.4;" xml:space="preserve">



<g>
	<path fill="#E3000F" d="M0,8.5h8v3.2c1.2-1.4,2.3-2.3,3.5-2.9C12.7,8.3,14.1,8,15.8,8c1.8,0,3.2,0.3,4.2,0.9c1,0.6,1.9,1.6,2.6,2.8
		c1.3-1.5,2.6-2.5,3.7-3C27.4,8.2,28.8,8,30.4,8c2.4,0,4.3,0.7,5.6,2.1c1.4,1.4,2,3.7,2,6.7v14.1h-8.6V18.1c0-1-0.2-1.8-0.6-2.3
		c-0.6-0.8-1.3-1.2-2.1-1.2c-1,0-1.8,0.4-2.4,1.1c-0.6,0.7-0.9,1.9-0.9,3.5v11.6h-8.6V18.5c0-1-0.1-1.7-0.2-2
		c-0.2-0.6-0.5-1-0.9-1.4c-0.4-0.3-1-0.5-1.6-0.5c-1,0-1.8,0.4-2.4,1.1c-0.6,0.7-0.9,2-0.9,3.7v11.5H0V8.5z"/>
	<path fill="#E3000F" d="M52.4,13.8c0.7-0.4,1.8-0.7,3.2-0.7c1.1,0,1.9,0.2,2.3,0.6c0.4,0.4,0.7,1.2,0.7,2.2c-1.1,0.4-2.1,0.8-3,1
		s-3,0.7-6.3,1.4c-2.7,0.5-4.5,1.4-5.5,2.5c-1,1.1-1.5,2.5-1.5,4.2c0,1.8,0.7,3.4,2.1,4.6c1.4,1.2,3.4,1.9,6.1,1.9
		c2,0,3.8-0.3,5.3-0.9c1.1-0.5,2.2-1.2,3.4-2.3c0.1,0.6,0.2,1.1,0.3,1.4c0.1,0.3,0.3,0.7,0.6,1.3h8c-0.4-0.9-0.7-1.7-0.9-2.3
		c-0.1-0.6-0.2-1.4-0.2-2.5v-9.9c0-1.1-0.2-2.2-0.6-3.3c-0.4-1.2-1-2.1-1.7-2.7c-1-0.9-2.3-1.5-3.9-1.8S56.9,8,54.4,8
		c-1.6,0-3.1,0.1-4.5,0.4s-2.5,0.6-3.2,1c-1.1,0.6-1.9,1.3-2.5,2.1c-0.6,0.8-1,1.9-1.3,3.4l8.2,0.9C51.4,14.8,51.8,14.1,52.4,13.8
		 M58.5,21.6c0,1.1-0.2,2-0.5,2.6c-0.3,0.7-0.9,1.2-1.7,1.7s-1.7,0.7-2.7,0.7c-0.9,0-1.6-0.2-2.1-0.6c-0.5-0.4-0.7-1-0.7-1.7
		c0-0.6,0.2-1.1,0.7-1.6c0.5-0.5,1.6-0.9,3.3-1.4c1.3-0.3,2.5-0.7,3.7-1.1C58.5,20.3,58.5,21.6,58.5,21.6z"/>
	<path fill="#E3000F" d="M72.4,30.9h8v-3.3c1.1,1.4,2.1,2.3,3.1,2.9c1.3,0.6,2.6,1,4.2,1c1.8,0,3.4-0.5,4.8-1.4
		c1.4-0.9,2.6-2.3,3.4-4.2c0.8-1.9,1.2-4,1.2-6.5c0-3.7-0.9-6.5-2.7-8.5c-1.8-2-4.1-3-6.8-3c-1.3,0-2.5,0.2-3.6,0.7
		c-1.1,0.4-2.1,1.1-2.9,2V0h-8.6L72.4,30.9L72.4,30.9z M82.1,15.7c0.7-0.9,1.7-1.3,2.9-1.3c1,0,1.8,0.4,2.5,1.3c0.7,0.8,1,2.1,1,3.9
		c0,2-0.4,3.5-1.1,4.3c-0.7,0.9-1.6,1.3-2.6,1.3c-1.1,0-2.1-0.4-2.8-1.3C81.4,23,81,21.6,81,19.7C81,17.9,81.4,16.6,82.1,15.7"/>
	<path fill="#E3000F" d="M101.7,30.9h8v-3.3c1.1,1.4,2.1,2.3,3.1,2.9c1.3,0.6,2.6,1,4.2,1c1.8,0,3.4-0.5,4.8-1.4
		c1.4-0.9,2.6-2.3,3.4-4.2c0.8-1.9,1.2-4,1.2-6.5c0-3.7-0.9-6.5-2.7-8.5s-4.1-3-6.8-3c-1.3,0-2.5,0.2-3.6,0.7
		c-1.1,0.4-2.1,1.1-2.9,2V0h-8.6L101.7,30.9L101.7,30.9z M111.4,15.7c0.7-0.9,1.7-1.3,2.9-1.3c1,0,1.8,0.4,2.5,1.3
		c0.7,0.8,1,2.1,1,3.9c0,2-0.4,3.5-1.1,4.3c-0.7,0.9-1.6,1.3-2.6,1.3c-1.1,0-2.1-0.4-2.8-1.3c-0.7-0.9-1.1-2.3-1.1-4.2
		C110.3,17.9,110.6,16.6,111.4,15.7"/>
</g>
<rect x="127.5" y="35.8" fill="#E3000F" width="33.2" height="3.2"/>
<g>
	<path d="M6.6,52.7v-3.3c0-0.7-0.2-1.2-0.8-1.2c-0.7,0-1.4,0.8-1.4,2v2.5H3.4v-3.3c0-0.6-0.1-1.2-0.8-1.2c-0.8,0-1.4,0.8-1.4,2v2.5
		H0.2v-5.2h0.9c0,0.3,0,0.8-0.1,1.1l0,0c0.3-0.7,1-1.2,1.8-1.2c1.1,0,1.4,0.8,1.4,1.2C4.5,48.2,5,47.5,6,47.5c1,0,1.5,0.5,1.5,1.7
		v3.6H6.6z"/>
	<path d="M13.2,50.1H9.8c0,1.4,0.5,2,1.6,2c0.5,0,1.1-0.1,1.5-0.3l0.1,0.8c-0.5,0.2-1.1,0.3-1.7,0.3c-1.6,0-2.4-0.8-2.4-2.7
		c0-1.6,0.8-2.7,2.3-2.7c1.5,0,2.1,1,2.1,2.2C13.2,49.8,13.2,49.9,13.2,50.1z M11.1,48.2c-0.7,0-1.2,0.5-1.3,1.3h2.4
		C12.3,48.7,11.9,48.2,11.1,48.2z"/>
	<path d="M17.7,52.7c0-0.3,0-0.7,0.1-1.1l0,0c-0.3,0.7-0.9,1.2-1.7,1.2c-1.3,0-1.9-0.9-1.9-2.4c0-1.8,1-2.9,2.7-2.9
		c0.3,0,0.6,0,0.9,0.1v-2.4h0.9v7.6H17.7z M17.7,48.4c-0.3-0.1-0.6-0.1-0.9-0.1c-1,0-1.6,0.6-1.6,2.1c0,1.1,0.4,1.7,1.1,1.7
		c0.9,0,1.4-1.1,1.4-2V48.4z"/>
	<path d="M20.9,46.7c-0.3,0-0.6-0.3-0.6-0.6c0-0.3,0.3-0.6,0.6-0.6c0.3,0,0.6,0.3,0.6,0.6C21.5,46.4,21.2,46.7,20.9,46.7z
		 M20.4,52.7v-5.2h0.9v5.2H20.4z"/>
	<path d="M27,50.1h-3.4c0,1.4,0.5,2,1.6,2c0.5,0,1.1-0.1,1.5-0.3l0.1,0.8c-0.5,0.2-1.1,0.3-1.7,0.3c-1.6,0-2.4-0.8-2.4-2.7
		c0-1.6,0.8-2.7,2.3-2.7c1.5,0,2.1,1,2.1,2.2C27,49.8,27,49.9,27,50.1z M24.9,48.2c-0.7,0-1.2,0.5-1.3,1.3h2.4
		C26.1,48.7,25.6,48.2,24.9,48.2z"/>
	<path d="M31.7,52.7v-3.3c0-0.7-0.2-1.2-0.9-1.2c-0.9,0-1.5,0.9-1.5,2v2.5h-0.9v-5.2h0.9c0,0.3,0,0.8-0.1,1.1l0,0
		c0.3-0.7,0.9-1.2,1.8-1.2c1.2,0,1.6,0.7,1.6,1.7v3.6H31.7z"/>
	<path d="M37.1,52.7c0-0.4,0-0.7,0.1-1h0c-0.2,0.6-0.9,1.1-1.8,1.1c-0.9,0-1.4-0.5-1.4-1.3c0-1.1,1.2-1.9,3.1-1.9v-0.4
		c0-0.7-0.3-1.1-1.1-1.1c-0.5,0-1.1,0.2-1.6,0.4l-0.1-0.8c0.5-0.2,1.1-0.4,1.8-0.4c1.5,0,1.9,0.7,1.9,1.7v2.1c0,0.5,0,1,0,1.5H37.1z
		 M37.1,50.4c-1.8,0-2.2,0.6-2.2,1c0,0.4,0.3,0.7,0.8,0.7C36.5,52.1,37.1,51.3,37.1,50.4L37.1,50.4z"/>
	<path d="M43.1,52.7v-3.3c0-0.7-0.2-1.2-0.9-1.2c-0.9,0-1.5,0.9-1.5,2v2.5h-0.9v-5.2h0.9c0,0.3,0,0.8-0.1,1.1l0,0
		c0.3-0.7,0.9-1.2,1.8-1.2c1.2,0,1.6,0.7,1.6,1.7v3.6H43.1z"/>
	<path d="M46.6,52.8c-0.4,0-0.8,0-1.1-0.1l0-0.8c0.3,0.1,0.7,0.2,1.1,0.2c0.7,0,1.2-0.3,1.2-0.8c0-1.2-2.4-0.4-2.4-2.3
		c0-0.9,0.7-1.6,2.1-1.6c0.3,0,0.7,0,1,0.1l0,0.8c-0.3-0.1-0.7-0.2-1-0.2c-0.7,0-1,0.3-1,0.7c0,1.1,2.4,0.5,2.4,2.3
		C48.8,52.1,47.9,52.8,46.6,52.8z"/>
	<path d="M51.8,52.8c-1.1,0-1.4-0.4-1.4-1.6v-3h-1.1v-0.7h1.1v-1.7l0.9-0.3v1.9h1.4v0.7h-1.4v2.6c0,0.9,0.2,1.1,0.7,1.1
		c0.2,0,0.5,0,0.7-0.1v0.8C52.5,52.8,52.1,52.8,51.8,52.8z"/>
	<path d="M56.8,52.7c0-0.4,0-0.7,0.1-1h0c-0.2,0.6-0.9,1.1-1.8,1.1c-0.9,0-1.4-0.5-1.4-1.3c0-1.1,1.2-1.9,3.1-1.9v-0.4
		c0-0.7-0.3-1.1-1.1-1.1c-0.5,0-1.1,0.2-1.6,0.4l-0.1-0.8c0.5-0.2,1.1-0.4,1.8-0.4c1.5,0,1.9,0.7,1.9,1.7v2.1c0,0.5,0,1,0,1.5H56.8z
		 M56.7,50.4c-1.8,0-2.2,0.6-2.2,1c0,0.4,0.3,0.7,0.8,0.7C56.2,52.1,56.7,51.3,56.7,50.4L56.7,50.4z"/>
	<path d="M59.4,52.7v-7.6h0.9v7.6H59.4z"/>
	<path d="M63.7,52.8c-1.1,0-1.4-0.4-1.4-1.6v-3h-1.1v-0.7h1.1v-1.7l0.9-0.3v1.9h1.4v0.7h-1.4v2.6c0,0.9,0.2,1.1,0.7,1.1
		c0.2,0,0.5,0,0.7-0.1v0.8C64.5,52.8,64.1,52.8,63.7,52.8z"/>
	<path fill="#E3000F" d="M65.1,55.4v-0.7h5.2v0.7H65.1z"/>
	<path d="M73,52.8c-0.7,0-1.2-0.1-1.8-0.2v-7.5h0.9v2.5c0,0.3,0,0.7-0.1,1l0,0c0.3-0.7,0.9-1.2,1.7-1.2c1.2,0,1.9,0.9,1.9,2.4
		C75.7,51.7,74.7,52.8,73,52.8z M73.6,48.3c-0.9,0-1.4,1.1-1.4,2V52c0.3,0.1,0.6,0.1,0.9,0.1c1,0,1.6-0.6,1.6-2.1
		C74.7,48.9,74.3,48.3,73.6,48.3z"/>
	<path d="M80.9,50.1h-3.4c0,1.4,0.5,2,1.6,2c0.5,0,1.1-0.1,1.5-0.3l0.1,0.8c-0.5,0.2-1.1,0.3-1.7,0.3c-1.6,0-2.4-0.8-2.4-2.7
		c0-1.6,0.8-2.7,2.3-2.7c1.5,0,2.1,1,2.1,2.2C80.9,49.8,80.9,49.9,80.9,50.1z M78.8,48.2c-0.7,0-1.2,0.5-1.3,1.3H80
		C80,48.7,79.6,48.2,78.8,48.2z"/>
	<path d="M84.8,48.4c-1.1-0.2-1.6,0.6-1.6,2.3v2.1h-0.9v-5.2h0.9c0,0.3,0,0.8-0.1,1.2h0c0.2-0.7,0.7-1.4,1.8-1.3L84.8,48.4z"/>
	<path d="M86,52.7v-7.6h0.9v7.6H86z"/>
	<path d="M89.2,46.7c-0.3,0-0.6-0.3-0.6-0.6c0-0.3,0.3-0.6,0.6-0.6c0.3,0,0.6,0.3,0.6,0.6C89.8,46.4,89.5,46.7,89.2,46.7z
		 M88.7,52.7v-5.2h0.9v5.2H88.7z"/>
	<path d="M94.7,52.7v-3.3c0-0.7-0.2-1.2-0.9-1.2c-0.9,0-1.5,0.9-1.5,2v2.5h-0.9v-5.2h0.9c0,0.3,0,0.8-0.1,1.1l0,0
		c0.3-0.7,0.9-1.2,1.8-1.2c1.2,0,1.6,0.7,1.6,1.7v3.6H94.7z"/>
	<path fill="#E3000F" d="M96.5,55.4v-0.7h5.2v0.7H96.5z"/>
	<path d="M104.4,52.8c-0.7,0-1.2-0.1-1.8-0.2v-7.5h0.9v2.5c0,0.3,0,0.7-0.1,1l0,0c0.3-0.7,0.9-1.2,1.7-1.2c1.2,0,1.9,0.9,1.9,2.4
		C107.1,51.7,106,52.8,104.4,52.8z M104.9,48.3c-0.9,0-1.4,1.1-1.4,2V52c0.3,0.1,0.6,0.1,0.9,0.1c1,0,1.6-0.6,1.6-2.1
		C106.1,48.9,105.7,48.3,104.9,48.3z"/>
	<path d="M110.9,48.4c-1.1-0.2-1.6,0.6-1.6,2.3v2.1h-0.9v-5.2h0.9c0,0.3,0,0.8-0.1,1.2h0c0.2-0.7,0.7-1.4,1.8-1.3L110.9,48.4z"/>
	<path d="M114.6,52.7c0-0.4,0-0.7,0.1-1h0c-0.2,0.6-0.9,1.1-1.8,1.1s-1.4-0.5-1.4-1.3c0-1.1,1.2-1.9,3.1-1.9v-0.4
		c0-0.7-0.3-1.1-1.1-1.1c-0.5,0-1.1,0.2-1.6,0.4l-0.1-0.8c0.5-0.2,1.1-0.4,1.8-0.4c1.5,0,1.9,0.7,1.9,1.7v2.1c0,0.5,0,1,0,1.5H114.6
		z M114.6,50.4c-1.8,0-2.2,0.6-2.2,1c0,0.4,0.3,0.7,0.8,0.7C114,52.1,114.6,51.3,114.6,50.4L114.6,50.4z"/>
	<path d="M120.6,52.7v-3.3c0-0.7-0.2-1.2-0.9-1.2c-0.9,0-1.5,0.9-1.5,2v2.5h-0.9v-5.2h0.9c0,0.3,0,0.8-0.1,1.1l0,0
		c0.3-0.7,0.9-1.2,1.8-1.2c1.2,0,1.6,0.7,1.6,1.7v3.6H120.6z"/>
	<path d="M126.4,52.7c0-0.3,0-0.7,0.1-1.1l0,0c-0.3,0.7-0.9,1.2-1.7,1.2c-1.3,0-1.9-0.9-1.9-2.4c0-1.8,1-2.9,2.7-2.9
		c0.3,0,0.6,0,0.9,0.1v-2.4h0.9v7.6H126.4z M126.4,48.4c-0.3-0.1-0.6-0.1-0.9-0.1c-1,0-1.6,0.6-1.6,2.1c0,1.1,0.4,1.7,1.1,1.7
		c0.9,0,1.4-1.1,1.4-2V48.4z"/>
	<path d="M132.9,50.1h-3.4c0,1.4,0.5,2,1.6,2c0.5,0,1.1-0.1,1.5-0.3l0.1,0.8c-0.5,0.2-1.1,0.3-1.7,0.3c-1.6,0-2.4-0.8-2.4-2.7
		c0-1.6,0.8-2.7,2.3-2.7c1.5,0,2.1,1,2.1,2.2C133,49.8,133,49.9,132.9,50.1z M130.9,48.2c-0.7,0-1.2,0.5-1.3,1.3h2.4
		C132,48.7,131.6,48.2,130.9,48.2z"/>
	<path d="M137.6,52.7v-3.3c0-0.7-0.2-1.2-0.9-1.2c-0.9,0-1.5,0.9-1.5,2v2.5h-0.9v-5.2h0.9c0,0.3,0,0.8-0.1,1.1l0,0
		c0.3-0.7,0.9-1.2,1.8-1.2c1.2,0,1.6,0.7,1.6,1.7v3.6H137.6z"/>
	<path d="M142.1,52.8c-0.7,0-1.2-0.1-1.8-0.2v-7.5h0.9v2.5c0,0.3,0,0.7-0.1,1l0,0c0.3-0.7,0.9-1.2,1.7-1.2c1.2,0,1.9,0.9,1.9,2.4
		C144.8,51.7,143.8,52.8,142.1,52.8z M142.7,48.3c-0.9,0-1.4,1.1-1.4,2V52c0.3,0.1,0.6,0.1,0.9,0.1c1,0,1.6-0.6,1.6-2.1
		C143.8,48.9,143.5,48.3,142.7,48.3z"/>
	<path d="M149.4,52.7c0-0.3,0-0.8,0.1-1.1l0,0c-0.3,0.7-0.9,1.2-1.8,1.2c-1.2,0-1.6-0.7-1.6-1.7v-3.6h0.9v3.3c0,0.7,0.2,1.2,0.9,1.2
		c0.9,0,1.5-0.9,1.5-2v-2.5h0.9v5.2H149.4z"/>
	<path d="M154.7,48.4c-1.1-0.2-1.6,0.6-1.6,2.3v2.1h-0.9v-5.2h0.9c0,0.3,0,0.8-0.1,1.2h0c0.2-0.7,0.7-1.4,1.8-1.3L154.7,48.4z"/>
	<path d="M157.5,55.4c-1.3,0-2.2-0.5-2.2-1.5c0-0.6,0.4-1.1,0.9-1.3c-0.3-0.1-0.5-0.4-0.5-0.8c0-0.4,0.2-0.7,0.6-0.9
		c-0.5-0.3-0.8-0.8-0.8-1.5c0-1.1,0.8-2,2.3-2c0.3,0,0.5,0,0.8,0.1h1.8v0.7h-0.9c0.3,0.2,0.4,0.6,0.4,1c0,1.1-0.8,1.9-2.2,1.9
		c-0.2,0-0.5,0-0.7-0.1c-0.2,0.1-0.3,0.3-0.3,0.4c0,0.3,0.3,0.4,0.9,0.4h1c1.1,0,1.7,0.5,1.7,1.5C160.3,54.6,159.1,55.4,157.5,55.4z
		 M158.2,52.8h-1.3c-0.4,0.2-0.7,0.6-0.7,0.9c0,0.6,0.6,0.9,1.4,0.9c1.1,0,1.7-0.4,1.7-1.1C159.3,53.1,159,52.8,158.2,52.8z
		 M157.7,48.2c-0.8,0-1.3,0.5-1.3,1.2c0,0.8,0.5,1.2,1.3,1.2c0.8,0,1.3-0.4,1.3-1.2S158.5,48.2,157.7,48.2z"/>
</g>
</svg>
