<svg xmlns="http://www.w3.org/2000/svg" width="250" height="36" viewBox="0 0 250 36" fill="none">
    <path d="M249.448 8.11944V12.2501H237.507V8.11944H249.448ZM240.218 3.36914H245.717V21.854C245.717 22.3617 245.795 22.7576 245.949 23.0416C246.104 23.3169 246.319 23.5106 246.595 23.6224C246.879 23.7343 247.206 23.7903 247.576 23.7903C247.834 23.7903 248.092 23.7687 248.35 23.7257C248.609 23.6741 248.806 23.6354 248.944 23.6095L249.809 27.7015C249.534 27.7876 249.146 27.8865 248.647 27.9984C248.148 28.1189 247.541 28.192 246.827 28.2178C245.502 28.2695 244.34 28.0931 243.342 27.6886C242.352 27.2841 241.582 26.6559 241.031 25.804C240.481 24.952 240.209 23.8763 240.218 22.5769V3.36914Z" fill="white"/>
    <path d="M217.534 35.3821V8.1195H222.956V11.4499H223.201C223.442 10.9163 223.791 10.3742 224.247 9.82341C224.712 9.26404 225.314 8.79934 226.054 8.4293C226.803 8.05065 227.732 7.86133 228.842 7.86133C230.288 7.86133 231.622 8.23998 232.844 8.99727C234.066 9.74596 235.043 10.8776 235.774 12.3922C236.505 13.8982 236.871 15.7871 236.871 18.059C236.871 20.2706 236.514 22.138 235.8 23.6612C235.094 25.1758 234.13 26.3247 232.908 27.1078C231.695 27.8823 230.335 28.2695 228.829 28.2695C227.762 28.2695 226.854 28.0931 226.106 27.7403C225.366 27.3875 224.759 26.9443 224.286 26.4107C223.812 25.8686 223.451 25.3221 223.201 24.7714H223.033V35.3821H217.534ZM222.917 18.0332C222.917 19.2121 223.081 20.2405 223.408 21.1183C223.735 21.996 224.208 22.6802 224.828 23.1707C225.447 23.6526 226.2 23.8936 227.087 23.8936C227.982 23.8936 228.739 23.6483 229.359 23.1578C229.978 22.6587 230.447 21.9702 230.766 21.0925C231.093 20.2061 231.256 19.1863 231.256 18.0332C231.256 16.8886 231.097 15.8818 230.778 15.0126C230.46 14.1434 229.991 13.4636 229.371 12.9731C228.752 12.4825 227.99 12.2373 227.087 12.2373C226.192 12.2373 225.434 12.4739 224.815 12.9472C224.204 13.4206 223.735 14.0918 223.408 14.961C223.081 15.8301 222.917 16.8542 222.917 18.0332Z" fill="white"/>
    <path d="M209.266 27.9467V8.1194H214.765V27.9467H209.266ZM212.029 5.56353C211.211 5.56353 210.51 5.29245 209.925 4.7503C209.348 4.19954 209.06 3.54121 209.06 2.77531C209.06 2.01802 209.348 1.36829 209.925 0.82614C210.51 0.27538 211.211 0 212.029 0C212.846 0 213.543 0.27538 214.12 0.82614C214.705 1.36829 214.998 2.01802 214.998 2.77531C214.998 3.54121 214.705 4.19954 214.12 4.7503C213.543 5.29245 212.846 5.56353 212.029 5.56353Z" fill="white"/>
    <path d="M196.028 27.9468V8.11943H201.36V11.5789H201.566C201.928 10.3483 202.534 9.41888 203.386 8.79067C204.238 8.15386 205.219 7.83545 206.329 7.83545C206.605 7.83545 206.902 7.85266 207.22 7.88708C207.538 7.92151 207.818 7.96884 208.059 8.02907V12.9085C207.801 12.831 207.444 12.7622 206.988 12.7019C206.532 12.6417 206.114 12.6116 205.736 12.6116C204.927 12.6116 204.204 12.788 203.567 13.1408C202.939 13.485 202.44 13.9669 202.07 14.5866C201.708 15.2062 201.527 15.9204 201.527 16.7294V27.9468H196.028Z" fill="white"/>
    <path d="M185.288 28.3341C183.257 28.3341 181.51 27.9038 180.047 27.0432C178.593 26.1741 177.474 24.9693 176.691 23.4289C175.917 21.8885 175.529 20.1157 175.529 18.1106C175.529 16.0797 175.921 14.2983 176.704 12.7665C177.496 11.2261 178.619 10.0256 180.073 9.16508C181.527 8.29591 183.257 7.86133 185.262 7.86133C186.992 7.86133 188.507 8.17543 189.806 8.80364C191.105 9.43185 192.134 10.3139 192.891 11.4499C193.648 12.5858 194.066 13.9197 194.143 15.4515H188.954C188.808 14.4618 188.421 13.6658 187.792 13.0634C187.173 12.4524 186.359 12.1469 185.353 12.1469C184.501 12.1469 183.756 12.3793 183.119 12.844C182.491 13.3001 182.001 13.967 181.648 14.8448C181.295 15.7226 181.119 16.7853 181.119 18.0332C181.119 19.2982 181.291 20.3739 181.635 21.2603C181.988 22.1466 182.483 22.8222 183.119 23.2869C183.756 23.7516 184.501 23.9839 185.353 23.9839C185.981 23.9839 186.544 23.8549 187.044 23.5967C187.551 23.3385 187.969 22.9642 188.296 22.4737C188.631 21.9745 188.851 21.3764 188.954 20.6794H194.143C194.057 22.194 193.644 23.5278 192.904 24.681C192.173 25.8255 191.161 26.7205 189.871 27.366C188.58 28.0114 187.052 28.3341 185.288 28.3341Z" fill="white"/>
    <path d="M174.051 13.7734L169.017 14.0832C168.931 13.6529 168.746 13.2657 168.462 12.9214C168.178 12.5686 167.803 12.2889 167.339 12.0824C166.882 11.8672 166.336 11.7597 165.699 11.7597C164.847 11.7597 164.129 11.9404 163.543 12.3018C162.958 12.6547 162.666 13.128 162.666 13.7218C162.666 14.1951 162.855 14.5952 163.234 14.9222C163.612 15.2492 164.262 15.5117 165.183 15.7096L168.771 16.4325C170.699 16.8284 172.136 17.4652 173.083 18.343C174.029 19.2207 174.503 20.3739 174.503 21.8024C174.503 23.1019 174.12 24.2421 173.354 25.2232C172.597 26.2042 171.555 26.9701 170.23 27.5209C168.913 28.063 167.394 28.3341 165.673 28.3341C163.049 28.3341 160.957 27.7876 159.4 26.6947C157.851 25.5932 156.943 24.0958 156.676 22.2026L162.085 21.9186C162.248 22.7189 162.644 23.3299 163.272 23.7516C163.901 24.1647 164.705 24.3712 165.686 24.3712C166.65 24.3712 167.425 24.1862 168.01 23.8161C168.604 23.4375 168.905 22.9513 168.913 22.3575C168.905 21.8584 168.694 21.4496 168.281 21.1312C167.868 20.8042 167.231 20.5546 166.37 20.3825L162.937 19.6983C161 19.3111 159.559 18.6399 158.612 17.6846C157.674 16.7294 157.205 15.5117 157.205 14.0316C157.205 12.7579 157.55 11.6607 158.238 10.7399C158.935 9.8191 159.912 9.10914 161.168 8.61002C162.433 8.11089 163.913 7.86133 165.609 7.86133C168.113 7.86133 170.084 8.39057 171.521 9.44906C172.967 10.5076 173.81 11.949 174.051 13.7734Z" fill="white"/>
    <path d="M142.076 16.4842V27.9468H136.577V8.1195H141.818V11.6177H142.051C142.489 10.4645 143.225 9.55233 144.258 8.88109C145.291 8.20125 146.543 7.86133 148.014 7.86133C149.391 7.86133 150.592 8.16252 151.616 8.76492C152.64 9.36731 153.436 10.2279 154.004 11.3466C154.572 12.4567 154.856 13.782 154.856 15.3224V27.9468H149.357V16.3034C149.365 15.09 149.056 14.1434 148.427 13.4636C147.799 12.7751 146.934 12.4309 145.833 12.4309C145.093 12.4309 144.439 12.5901 143.871 12.9085C143.311 13.2269 142.872 13.6916 142.554 14.3026C142.244 14.905 142.085 15.6322 142.076 16.4842Z" fill="white"/>
    <path d="M122.781 28.3212C121.516 28.3212 120.389 28.1017 119.399 27.6628C118.409 27.2154 117.626 26.557 117.05 25.6879C116.482 24.8101 116.198 23.7172 116.198 22.4091C116.198 21.3076 116.4 20.3825 116.804 19.6338C117.209 18.8851 117.76 18.2827 118.457 17.8266C119.154 17.3705 119.945 17.0263 120.832 16.794C121.727 16.5616 122.665 16.3981 123.646 16.3034C124.799 16.183 125.728 16.0711 126.434 15.9678C127.14 15.8559 127.652 15.6924 127.97 15.4773C128.289 15.2622 128.448 14.9437 128.448 14.5221V14.4446C128.448 13.6271 128.19 12.9946 127.673 12.5471C127.166 12.0996 126.443 11.8758 125.505 11.8758C124.515 11.8758 123.728 12.0953 123.142 12.5342C122.557 12.9645 122.17 13.5066 121.981 14.1606L116.895 13.7476C117.153 12.5428 117.661 11.5015 118.418 10.6237C119.175 9.73735 120.152 9.05751 121.348 8.5842C122.553 8.10229 123.947 7.86133 125.531 7.86133C126.632 7.86133 127.686 7.99041 128.693 8.24858C129.709 8.50675 130.608 8.90691 131.391 9.44906C132.183 9.99122 132.807 10.6883 133.263 11.5402C133.719 12.3836 133.947 13.3947 133.947 14.5737V27.9468H128.732V25.1973H128.577C128.259 25.8169 127.833 26.3634 127.299 26.8367C126.765 27.3014 126.124 27.6671 125.376 27.9339C124.627 28.1921 123.762 28.3212 122.781 28.3212ZM124.356 24.5261C125.165 24.5261 125.879 24.3669 126.499 24.0485C127.118 23.7215 127.604 23.2826 127.957 22.7318C128.31 22.1811 128.487 21.5572 128.487 20.8601V18.756C128.314 18.8679 128.078 18.9712 127.777 19.0658C127.484 19.1519 127.153 19.2336 126.783 19.3111C126.413 19.3799 126.043 19.4445 125.673 19.5047C125.302 19.5564 124.967 19.6037 124.666 19.6467C124.02 19.7414 123.457 19.892 122.975 20.0985C122.493 20.305 122.118 20.5847 121.852 20.9376C121.585 21.2818 121.451 21.7121 121.451 22.2284C121.451 22.9771 121.723 23.5494 122.265 23.9452C122.815 24.3325 123.513 24.5261 124.356 24.5261Z" fill="white"/>
    <path d="M104.458 27.9468V8.11943H109.789V11.5789H109.995C110.357 10.3483 110.963 9.41888 111.815 8.79067C112.667 8.15386 113.648 7.83545 114.758 7.83545C115.034 7.83545 115.331 7.85266 115.649 7.88708C115.968 7.92151 116.247 7.96884 116.488 8.02907V12.9085C116.23 12.831 115.873 12.7622 115.417 12.7019C114.961 12.6417 114.543 12.6116 114.165 12.6116C113.356 12.6116 112.633 12.788 111.996 13.1408C111.368 13.485 110.869 13.9669 110.499 14.5866C110.137 15.2062 109.957 15.9204 109.957 16.7294V27.9468H104.458Z" fill="white"/>
    <path d="M102.511 8.11944V12.2501H90.5708V8.11944H102.511ZM93.2816 3.36914H98.7806V21.854C98.7806 22.3617 98.858 22.7576 99.0129 23.0416C99.1678 23.3169 99.3829 23.5106 99.6583 23.6224C99.9423 23.7343 100.269 23.7903 100.639 23.7903C100.898 23.7903 101.156 23.7687 101.414 23.7257C101.672 23.6741 101.87 23.6354 102.008 23.6095L102.873 27.7015C102.597 27.7876 102.21 27.8865 101.711 27.9984C101.212 28.1189 100.605 28.192 99.8907 28.2178C98.5654 28.2695 97.4037 28.0931 96.4054 27.6886C95.4158 27.2841 94.6456 26.6559 94.0948 25.804C93.544 24.952 93.273 23.8763 93.2816 22.5769V3.36914Z" fill="white"/>
    <path d="M80.2663 28.3341C78.2612 28.3341 76.5272 27.9081 75.0642 27.0561C73.6099 26.1956 72.4869 24.9994 71.6951 23.4676C70.9034 21.9272 70.5076 20.1415 70.5076 18.1106C70.5076 16.0625 70.9034 14.2725 71.6951 12.7407C72.4869 11.2003 73.6099 10.0041 75.0642 9.15217C76.5272 8.29161 78.2612 7.86133 80.2663 7.86133C82.2714 7.86133 84.0012 8.29161 85.4555 9.15217C86.9185 10.0041 88.0458 11.2003 88.8375 12.7407C89.6292 14.2725 90.0251 16.0625 90.0251 18.1106C90.0251 20.1415 89.6292 21.9272 88.8375 23.4676C88.0458 24.9994 86.9185 26.1956 85.4555 27.0561C84.0012 27.9081 82.2714 28.3341 80.2663 28.3341ZM80.2921 24.0743C81.2043 24.0743 81.9659 23.8161 82.5769 23.2998C83.1879 22.7749 83.6483 22.0606 83.9581 21.157C84.2766 20.2534 84.4358 19.225 84.4358 18.0719C84.4358 16.9187 84.2766 15.8904 83.9581 14.9868C83.6483 14.0832 83.1879 13.3689 82.5769 12.844C81.9659 12.319 81.2043 12.0566 80.2921 12.0566C79.3713 12.0566 78.5968 12.319 77.9686 12.844C77.349 13.3689 76.88 14.0832 76.5616 14.9868C76.2518 15.8904 76.0969 16.9187 76.0969 18.0719C76.0969 19.225 76.2518 20.2534 76.5616 21.157C76.88 22.0606 77.349 22.7749 77.9686 23.2998C78.5968 23.8161 79.3713 24.0743 80.2921 24.0743Z" fill="white"/>
    <path d="M63.0395 27.9467V8.1194H68.5385V27.9467H63.0395ZM65.8019 5.56353C64.9844 5.56353 64.2831 5.29245 63.6979 4.7503C63.1213 4.19954 62.833 3.54121 62.833 2.77531C62.833 2.01802 63.1213 1.36829 63.6979 0.82614C64.2831 0.27538 64.9844 0 65.8019 0C66.6195 0 67.3165 0.27538 67.8931 0.82614C68.4783 1.36829 68.7709 2.01802 68.7709 2.77531C68.7709 3.54121 68.4783 4.19954 67.8931 4.7503C67.3165 5.29245 66.6195 5.56353 65.8019 5.56353Z" fill="white"/>
    <path d="M48.8721 28.2694C47.3662 28.2694 46.0022 27.8822 44.7802 27.1076C43.5668 26.3245 42.603 25.1757 41.8887 23.6611C41.183 22.1379 40.8302 20.2705 40.8302 18.0588C40.8302 15.787 41.1959 13.898 41.9274 12.3921C42.6589 10.8775 43.6313 9.74583 44.8447 8.99714C46.0667 8.23984 47.4049 7.8612 48.8592 7.8612C49.9694 7.8612 50.8945 8.05052 51.6345 8.42917C52.3832 8.79921 52.9856 9.26391 53.4417 9.82328C53.9064 10.374 54.2593 10.9162 54.5002 11.4497H54.668V1.51025H60.1541V27.9467H54.7326V24.7712H54.5002C54.242 25.322 53.8763 25.8684 53.403 26.4106C52.9383 26.9441 52.3316 27.3873 51.5829 27.7402C50.8428 28.093 49.9392 28.2694 48.8721 28.2694ZM50.6148 23.8935C51.5012 23.8935 52.2498 23.6525 52.8608 23.1706C53.4805 22.6801 53.9538 21.9959 54.2808 21.1181C54.6164 20.2404 54.7842 19.212 54.7842 18.033C54.7842 16.8541 54.6207 15.83 54.2937 14.9608C53.9667 14.0917 53.4934 13.4204 52.8738 12.9471C52.2542 12.4738 51.5012 12.2372 50.6148 12.2372C49.7112 12.2372 48.9496 12.4824 48.33 12.9729C47.7104 13.4635 47.2414 14.1433 46.923 15.0125C46.6046 15.8816 46.4454 16.8885 46.4454 18.033C46.4454 19.1862 46.6046 20.2059 46.923 21.0923C47.25 21.9701 47.719 22.6585 48.33 23.1577C48.9496 23.6482 49.7112 23.8935 50.6148 23.8935Z" fill="white"/>
    <path d="M27.7697 28.3212C26.5047 28.3212 25.3773 28.1017 24.3877 27.6628C23.398 27.2154 22.6149 26.557 22.0384 25.6879C21.4704 24.8101 21.1864 23.7172 21.1864 22.4091C21.1864 21.3076 21.3886 20.3825 21.7931 19.6338C22.1976 18.8851 22.7483 18.2827 23.4454 17.8266C24.1424 17.3705 24.9341 17.0263 25.8205 16.794C26.7155 16.5616 27.6535 16.3981 28.6346 16.3034C29.7877 16.183 30.7171 16.0711 31.4228 15.9678C32.1284 15.8559 32.6405 15.6924 32.9589 15.4773C33.2773 15.2622 33.4365 14.9437 33.4365 14.5221V14.4446C33.4365 13.6271 33.1783 12.9946 32.662 12.5471C32.1543 12.0996 31.4314 11.8758 30.4934 11.8758C29.5037 11.8758 28.7163 12.0953 28.1311 12.5342C27.5459 12.9645 27.1587 13.5066 26.9694 14.1606L21.8835 13.7476C22.1416 12.5428 22.6494 11.5015 23.4066 10.6237C24.1639 9.73735 25.1407 9.05751 26.3369 8.5842C27.5416 8.10229 28.9358 7.86133 30.5192 7.86133C31.6207 7.86133 32.6749 7.99041 33.6818 8.24858C34.6972 8.50675 35.5965 8.90691 36.3796 9.44906C37.1713 9.99122 37.7952 10.6883 38.2513 11.5402C38.7074 12.3836 38.9355 13.3947 38.9355 14.5737V27.9468H33.7205V25.1973H33.5656C33.2472 25.8169 32.8212 26.3634 32.2876 26.8367C31.7541 27.3014 31.113 27.6671 30.3643 27.9339C29.6156 28.1921 28.7507 28.3212 27.7697 28.3212ZM29.3445 24.5261C30.1535 24.5261 30.8677 24.3669 31.4873 24.0485C32.1069 23.7215 32.5931 23.2826 32.946 22.7318C33.2988 22.1811 33.4752 21.5572 33.4752 20.8601V18.756C33.3031 18.8679 33.0664 18.9712 32.7653 19.0658C32.4727 19.1519 32.1413 19.2336 31.7713 19.3111C31.4013 19.3799 31.0312 19.4445 30.6612 19.5047C30.2911 19.5564 29.9555 19.6037 29.6543 19.6467C29.0089 19.7414 28.4452 19.892 27.9633 20.0985C27.4814 20.305 27.1071 20.5847 26.8403 20.9376C26.5735 21.2818 26.4401 21.7121 26.4401 22.2284C26.4401 22.9771 26.7112 23.5494 27.2534 23.9452C27.8041 24.3325 28.5012 24.5261 29.3445 24.5261Z" fill="white"/>
    <path d="M0 27.9467V1.51025H10.43C12.4265 1.51025 14.1304 1.86739 15.5417 2.58165C16.9617 3.28731 18.0417 4.28987 18.7817 5.58932C19.5304 6.88016 19.9048 8.39905 19.9048 10.146C19.9048 11.9015 19.5261 13.4118 18.7688 14.6768C18.0115 15.9333 16.9143 16.8971 15.4772 17.5683C14.0487 18.2396 12.3189 18.5752 10.288 18.5752H3.30456V14.0831H9.38442C10.4515 14.0831 11.3379 13.9368 12.0436 13.6442C12.7492 13.3516 13.2742 12.9127 13.6184 12.3275C13.9712 11.7423 14.1476 11.0152 14.1476 10.146C14.1476 9.26821 13.9712 8.52813 13.6184 7.92574C13.2742 7.32335 12.7449 6.86725 12.0306 6.55745C11.325 6.23904 10.4343 6.07984 9.3586 6.07984H5.58935V27.9467H0ZM14.2767 15.9161L20.8471 27.9467H14.6769L8.24848 15.9161H14.2767Z" fill="white"/>
</svg>