<svg width="16" height="16" viewBox="0 0 16 16" fill="none" xmlns="http://www.w3.org/2000/svg">
<g clip-path="url(#clip0_946_3730)">
<path d="M13.9603 7.33334C13.6537 4.55334 11.447 2.34667 8.66699 2.04V0.666672H7.33366V2.04C6.58033 2.12001 5.87366 2.34667 5.22699 2.68667L6.22699 3.68667C6.77366 3.46001 7.37366 3.33334 8.00033 3.33334C10.5803 3.33334 12.667 5.42 12.667 8C12.667 8.62667 12.5403 9.22667 12.3203 9.76667L13.3203 10.7667C13.6537 10.1267 13.8803 9.42 13.967 8.66667H15.3337V7.33334H13.9603ZM2.00033 2.84667L3.36033 4.20667C2.64699 5.08 2.16699 6.15334 2.04033 7.33334H0.666992V8.66667H2.04033C2.34699 11.4467 4.55366 13.6533 7.33366 13.96V15.3333H8.66699V13.96C9.84699 13.8267 10.9203 13.3533 11.7937 12.64L13.1537 14L14.0003 13.1533L2.84699 2.00001L2.00033 2.84667ZM10.847 11.6933C10.0603 12.3 9.07366 12.6667 8.00033 12.6667C5.42033 12.6667 3.33366 10.58 3.33366 8C3.33366 6.92667 3.70033 5.94 4.30699 5.15334L10.847 11.6933Z" fill="white"/>
</g>
<defs>
<clipPath id="clip0_946_3730">
<rect width="16" height="16" fill="white"/>
</clipPath>
</defs>
</svg>
