<svg width="16" height="16" viewBox="0 0 16 16" fill="none" xmlns="http://www.w3.org/2000/svg">
<g clip-path="url(#clip0_1005_1922)">
<path d="M8.00033 5.33334C6.52699 5.33334 5.33366 6.52667 5.33366 8C5.33366 9.47334 6.52699 10.6667 8.00033 10.6667C9.47366 10.6667 10.667 9.47334 10.667 8C10.667 6.52667 9.47366 5.33334 8.00033 5.33334ZM13.9603 7.33334C13.6537 4.55334 11.447 2.34667 8.66699 2.04V0.666672H7.33366V2.04C4.55366 2.34667 2.34699 4.55334 2.04033 7.33334H0.666992V8.66667H2.04033C2.34699 11.4467 4.55366 13.6533 7.33366 13.96V15.3333H8.66699V13.96C11.447 13.6533 13.6537 11.4467 13.9603 8.66667H15.3337V7.33334H13.9603ZM8.00033 12.6667C5.42033 12.6667 3.33366 10.58 3.33366 8C3.33366 5.42 5.42033 3.33334 8.00033 3.33334C10.5803 3.33334 12.667 5.42 12.667 8C12.667 10.58 10.5803 12.6667 8.00033 12.6667Z" fill="white"/>
</g>
<defs>
<clipPath id="clip0_1005_1922">
<rect width="16" height="16" fill="white"/>
</clipPath>
</defs>
</svg>
