<svg width="23" height="17" viewBox="0 0 23 17" fill="none" xmlns="http://www.w3.org/2000/svg">
    <path fill-rule="evenodd" clip-rule="evenodd" d="M4.36083 0.478688C4.21091 0.487224 4.06692 0.540196 3.9472 0.630854C1.46508 2.48453 0 5.39928 0 8.49719C0 11.596 1.46391 14.5159 3.9472 16.3694C4.02668 16.4293 4.1172 16.473 4.21358 16.4978C4.30995 16.5227 4.41028 16.5283 4.50881 16.5143C4.60735 16.5003 4.70215 16.4669 4.78779 16.4162C4.87342 16.3655 4.94821 16.2984 5.00786 16.2188C5.06745 16.1389 5.11068 16.0481 5.13507 15.9515C5.15946 15.8549 5.16452 15.7544 5.14997 15.6559C5.13542 15.5573 5.10155 15.4626 5.05029 15.3772C4.99903 15.2918 4.9314 15.2173 4.85128 15.1581C2.74945 13.5893 1.5127 11.1199 1.5127 8.49718C1.5127 5.87516 2.75045 3.41111 4.85128 1.84219C4.9314 1.78297 4.99903 1.70852 5.05029 1.62309C5.10155 1.53766 5.13542 1.44295 5.14997 1.34439C5.16452 1.24584 5.15946 1.14538 5.13507 1.04878C5.11068 0.952188 5.06745 0.861363 5.00786 0.781524C4.93331 0.681643 4.83524 0.601733 4.72235 0.5489C4.60947 0.496066 4.48528 0.471947 4.36083 0.478688ZM18.3164 0.478688C18.2671 0.47586 18.2176 0.477871 18.1687 0.484691C18.0692 0.498275 17.9734 0.531525 17.8869 0.582504C17.8004 0.633482 17.725 0.701168 17.6649 0.781616C17.6053 0.861455 17.5621 0.95228 17.5377 1.04887C17.5133 1.14547 17.5083 1.24593 17.5228 1.34449C17.5374 1.44304 17.5712 1.53776 17.6225 1.62318C17.6738 1.70861 17.7414 1.78307 17.8215 1.84228C19.9223 3.4112 21.1601 5.87525 21.1601 8.49728C21.1601 11.12 19.9233 13.5893 17.8215 15.1582C17.7414 15.2174 17.6738 15.2919 17.6225 15.3773C17.5712 15.4627 17.5374 15.5574 17.5228 15.656C17.5083 15.7545 17.5133 15.855 17.5377 15.9516C17.5621 16.0482 17.6053 16.139 17.6649 16.2188C17.7246 16.2987 17.7994 16.366 17.8852 16.4169C17.971 16.4677 18.0659 16.5011 18.1646 16.5151C18.2634 16.5291 18.3639 16.5234 18.4604 16.4984C18.5569 16.4735 18.6475 16.4297 18.7271 16.3695C21.2103 14.516 22.6743 11.5961 22.6743 8.49728C22.6743 5.39937 21.2092 2.48461 18.7271 0.630937C18.6082 0.540824 18.4653 0.487799 18.3164 0.478688ZM7.68168 3.20569C7.52314 3.21389 7.37119 3.27178 7.24737 3.37114C5.68725 4.6157 4.77446 6.50146 4.77446 8.49719C4.77446 10.4925 5.68786 12.3831 7.24737 13.6277C7.40442 13.7517 7.60423 13.8085 7.80303 13.7855C8.00183 13.7625 8.18343 13.6617 8.30803 13.5051C8.43274 13.3487 8.49047 13.1494 8.4686 12.9506C8.44673 12.7519 8.34704 12.5699 8.19133 12.4444C6.99061 11.4861 6.28716 10.0334 6.28716 8.4972C6.28716 6.96061 6.99013 5.51414 8.19133 4.5559C8.26928 4.49372 8.33417 4.41673 8.38226 4.32938C8.43035 4.24202 8.46069 4.14602 8.47154 4.04689C8.48239 3.94776 8.47352 3.84747 8.44546 3.75178C8.4174 3.65609 8.3707 3.5669 8.30803 3.48933C8.24586 3.41165 8.16896 3.34701 8.08176 3.2991C7.99456 3.25119 7.89877 3.22095 7.79986 3.21013C7.76065 3.20552 7.72114 3.20412 7.68168 3.20569ZM14.9926 3.20716C14.9532 3.20503 14.9137 3.20599 14.8744 3.21002C14.7755 3.22085 14.6797 3.25108 14.5925 3.299C14.5053 3.34691 14.4284 3.41155 14.3662 3.48923C14.3036 3.5668 14.2569 3.65599 14.2288 3.75168C14.2007 3.84737 14.1919 3.94766 14.2027 4.04679C14.2136 4.14591 14.2439 4.24192 14.292 4.32927C14.3401 4.41663 14.405 4.49362 14.4829 4.5558C15.6841 5.51403 16.3871 6.96051 16.3871 8.49709C16.3871 10.0333 15.6896 11.486 14.4888 12.4443C14.3322 12.5689 14.2314 12.7505 14.2084 12.9493C14.1854 13.1481 14.2422 13.3479 14.3662 13.505C14.428 13.5834 14.5046 13.6487 14.5918 13.6974C14.6789 13.746 14.7748 13.7769 14.874 13.7883C14.9731 13.7997 15.0735 13.7914 15.1695 13.7638C15.2654 13.7362 15.3549 13.6899 15.4328 13.6276C16.9923 12.383 17.8998 10.4923 17.8998 8.49709C17.8998 6.50136 16.987 4.6156 15.4269 3.37104C15.3029 3.27221 15.151 3.21494 14.9926 3.20716ZM11.2758 6.14245C10.0095 6.17496 8.98018 7.22508 8.98018 8.49866C8.98018 9.79245 10.0426 10.8519 11.3364 10.8519C12.6302 10.8519 13.6896 9.79245 13.6896 8.49866C13.6896 7.20487 12.6302 6.14245 11.3364 6.14245C11.3161 6.14245 11.2959 6.14194 11.2758 6.14245Z" fill="white"/>
</svg>
