<svg width="20" height="20" viewBox="0 0 20 20" fill="none" xmlns="http://www.w3.org/2000/svg">
<path d="M13.1296 11.8792H12.4712L12.2379 11.6542C13.0546 10.7042 13.5462 9.47083 13.5462 8.12916C13.5462 5.13749 11.1212 2.71249 8.12956 2.71249C5.13789 2.71249 2.71289 5.13749 2.71289 8.12916C2.71289 11.1208 5.13789 13.5458 8.12956 13.5458C9.47122 13.5458 10.7046 13.0542 11.6546 12.2375L11.8796 12.4708V13.1292L16.0462 17.2875L17.2879 16.0458L13.1296 11.8792ZM8.12956 11.8792C6.05456 11.8792 4.37956 10.2042 4.37956 8.12916C4.37956 6.05416 6.05456 4.37916 8.12956 4.37916C10.2046 4.37916 11.8796 6.05416 11.8796 8.12916C11.8796 10.2042 10.2046 11.8792 8.12956 11.8792Z" fill="white"/>
</svg>
