<svg width="25" height="24" viewBox="0 0 25 24" fill="none" xmlns="http://www.w3.org/2000/svg">
<path d="M17.345 14.255H16.555L16.275 13.985C17.255 12.845 17.845 11.365 17.845 9.755C17.845 6.165 14.935 3.255 11.345 3.255C7.92504 3.255 5.12504 5.895 4.87504 9.255H6.89504C7.14504 7.005 9.02504 5.255 11.345 5.255C13.835 5.255 15.845 7.26501 15.845 9.755C15.845 12.245 13.835 14.255 11.345 14.255C11.175 14.255 11.015 14.225 10.845 14.205V16.225C11.015 16.245 11.175 16.255 11.345 16.255C12.955 16.255 14.435 15.665 15.575 14.685L15.845 14.965V15.755L20.845 20.745L22.335 19.255L17.345 14.255Z" fill="white"/>
<path d="M8.31504 11.075L5.84504 13.545L3.37504 11.075L2.66504 11.785L5.13504 14.255L2.66504 16.725L3.37504 17.435L5.84504 14.965L8.31504 17.435L9.02504 16.725L6.55504 14.255L9.02504 11.785L8.31504 11.075Z" fill="white"/>
</svg>
